# xmcd
# 
# Track frame offsets:
#     150
#     19243
#     38573
#     73416
#     95707
#     140745
#     154917
#     168373
#     205426
# 
# Disc length: 3487
# 
# Revision: 1
# Processed by: cddbd v1.5.2PL0 Copyright (c) Steve Scherf et al.
# Submitted via: fre:ac v1.0.17
# 
DISCID=850d9d09
DTITLE=Stevie Ray Vaughan and Double Trouble - TEXAS FLOOD: LEGACY EDITION [CD2: RECORDED LIVE AT RIPLEY'S MUSIC HALL, PHILADELPHIA ON OCTOBER 20, 1983.)
DYEAR=1983
DGENRE=Blues
TTITLE0=Testify
TTITLE1=So Excited
TTITLE2=Voodoo Child (Slight Return)
TTITLE3=Pride And Joy
TTITLE4=Texas Flood
TTITLE5=Love Struck Baby
TTITLE6=Mary Had A Little Lamb
TTITLE7=Tin Pan Alley (aka Roughest Place In Town)
TTITLE8=Little Wing/Third Stone From The Sun
EXTD=
EXTT0=
EXTT1=
EXTT2=
EXTT3=
EXTT4=
EXTT5=
EXTT6=
EXTT7=
EXTT8=
PLAYORDER=
